<mxfile host="app.diagrams.net" modified="2020-12-18T11:27:41.180Z" agent="5.0 (Windows NT 10.0; Win64; x64) AppleWebKit/537.36 (KHTML, like Gecko) Chrome/87.0.4280.88 Safari/537.36 Edg/87.0.664.60" etag="x6oxVjOFx0H-clxguEcg" version="14.0.5" type="github">
  <diagram id="6a731a19-8d31-9384-78a2-239565b7b9f0" name="Page-1">
    <mxGraphModel dx="1920" dy="1294" grid="1" gridSize="10" guides="1" tooltips="1" connect="1" arrows="1" fold="1" page="1" pageScale="1" pageWidth="827" pageHeight="1169" background="#ffffff" math="0" shadow="0">
      <root>
        <mxCell id="0" />
        <mxCell id="1" parent="0" />
        <mxCell id="xNP1j4Vja1RRKsOWLwcq-2262" value="" style="endArrow=classic;startArrow=classic;html=1;exitX=0.508;exitY=0.125;exitDx=0;exitDy=0;exitPerimeter=0;" edge="1" parent="1">
          <mxGeometry width="50" height="50" relative="1" as="geometry">
            <mxPoint x="414.96000000000004" y="130" as="sourcePoint" />
            <mxPoint x="414.31999999999994" y="70" as="targetPoint" />
          </mxGeometry>
        </mxCell>
        <mxCell id="xNP1j4Vja1RRKsOWLwcq-2264" value="" style="outlineConnect=0;dashed=0;verticalLabelPosition=bottom;verticalAlign=top;align=center;html=1;shape=mxgraph.aws3.users;fillColor=#D2D3D3;gradientColor=none;" vertex="1" parent="1">
          <mxGeometry x="381" y="10" width="66" height="63" as="geometry" />
        </mxCell>
        <mxCell id="xNP1j4Vja1RRKsOWLwcq-2267" style="edgeStyle=orthogonalEdgeStyle;rounded=0;orthogonalLoop=1;jettySize=auto;html=1;exitX=0.5;exitY=1;exitDx=0;exitDy=0;exitPerimeter=0;" edge="1" parent="1" source="xNP1j4Vja1RRKsOWLwcq-2265" target="xNP1j4Vja1RRKsOWLwcq-2266">
          <mxGeometry relative="1" as="geometry" />
        </mxCell>
        <mxCell id="xNP1j4Vja1RRKsOWLwcq-2265" value="" style="outlineConnect=0;dashed=0;verticalLabelPosition=bottom;verticalAlign=top;align=center;html=1;shape=mxgraph.aws3.internet_2;fillColor=#D2D3D3;gradientColor=none;" vertex="1" parent="1">
          <mxGeometry x="374.25" y="130" width="79.5" height="54" as="geometry" />
        </mxCell>
        <mxCell id="xNP1j4Vja1RRKsOWLwcq-2272" style="edgeStyle=orthogonalEdgeStyle;rounded=0;orthogonalLoop=1;jettySize=auto;html=1;entryX=0.5;entryY=0;entryDx=0;entryDy=0;entryPerimeter=0;" edge="1" parent="1" source="xNP1j4Vja1RRKsOWLwcq-2266" target="xNP1j4Vja1RRKsOWLwcq-2269">
          <mxGeometry relative="1" as="geometry">
            <Array as="points">
              <mxPoint x="414" y="341" />
            </Array>
          </mxGeometry>
        </mxCell>
        <mxCell id="xNP1j4Vja1RRKsOWLwcq-2266" value="" style="verticalLabelPosition=bottom;aspect=fixed;html=1;verticalAlign=top;strokeColor=none;align=center;outlineConnect=0;shape=mxgraph.citrix.citrix_logo;fillColor=#4E4F53;" vertex="1" parent="1">
          <mxGeometry x="334" y="240" width="160" height="62.5" as="geometry" />
        </mxCell>
        <mxCell id="xNP1j4Vja1RRKsOWLwcq-2268" value="" style="whiteSpace=wrap;html=1;aspect=fixed;gradientColor=#ffffff;glass=0;fillColor=none;" vertex="1" parent="1">
          <mxGeometry x="80" y="340" width="680" height="680" as="geometry" />
        </mxCell>
        <mxCell id="xNP1j4Vja1RRKsOWLwcq-2269" value="" style="aspect=fixed;pointerEvents=1;shadow=0;dashed=0;html=1;strokeColor=none;labelPosition=center;verticalLabelPosition=bottom;verticalAlign=top;align=center;fillColor=#00188D;shape=mxgraph.azure.load_balancer_generic" vertex="1" parent="1">
          <mxGeometry x="395" y="380" width="37" height="50" as="geometry" />
        </mxCell>
        <mxCell id="xNP1j4Vja1RRKsOWLwcq-2270" value="" style="pointerEvents=1;shadow=0;dashed=0;html=1;strokeColor=none;fillColor=#505050;labelPosition=center;verticalLabelPosition=bottom;verticalAlign=top;outlineConnect=0;align=center;shape=mxgraph.office.servers.datacenter;" vertex="1" parent="1">
          <mxGeometry x="170" y="630" width="53" height="53" as="geometry" />
        </mxCell>
        <mxCell id="xNP1j4Vja1RRKsOWLwcq-2271" value="" style="pointerEvents=1;shadow=0;dashed=0;html=1;strokeColor=none;fillColor=#505050;labelPosition=center;verticalLabelPosition=bottom;verticalAlign=top;outlineConnect=0;align=center;shape=mxgraph.office.servers.datacenter;" vertex="1" parent="1">
          <mxGeometry x="610" y="630" width="53" height="53" as="geometry" />
        </mxCell>
        <mxCell id="xNP1j4Vja1RRKsOWLwcq-2274" style="edgeStyle=orthogonalEdgeStyle;rounded=0;orthogonalLoop=1;jettySize=auto;html=1;entryX=0.49;entryY=1;entryDx=0;entryDy=0;entryPerimeter=0;" edge="1" parent="1" source="xNP1j4Vja1RRKsOWLwcq-2273" target="xNP1j4Vja1RRKsOWLwcq-2269">
          <mxGeometry relative="1" as="geometry" />
        </mxCell>
        <mxCell id="xNP1j4Vja1RRKsOWLwcq-2273" value="" style="outlineConnect=0;fontColor=#232F3E;gradientColor=none;fillColor=#5A30B5;strokeColor=none;dashed=0;verticalLabelPosition=bottom;verticalAlign=top;align=center;html=1;fontSize=12;fontStyle=0;aspect=fixed;pointerEvents=1;shape=mxgraph.aws4.router;" vertex="1" parent="1">
          <mxGeometry x="374.25" y="480" width="78" height="78" as="geometry" />
        </mxCell>
        <mxCell id="xNP1j4Vja1RRKsOWLwcq-2296" style="edgeStyle=orthogonalEdgeStyle;shape=link;rounded=0;orthogonalLoop=1;jettySize=auto;html=1;exitX=1;exitY=0.5;exitDx=0;exitDy=0;" edge="1" parent="1" source="xNP1j4Vja1RRKsOWLwcq-2275" target="xNP1j4Vja1RRKsOWLwcq-2276">
          <mxGeometry relative="1" as="geometry" />
        </mxCell>
        <mxCell id="xNP1j4Vja1RRKsOWLwcq-2275" value="" style="whiteSpace=wrap;html=1;aspect=fixed;fillColor=none;gradientColor=#ffffff;dashed=1;" vertex="1" parent="1">
          <mxGeometry x="119.75" y="585" width="153.5" height="153.5" as="geometry" />
        </mxCell>
        <mxCell id="xNP1j4Vja1RRKsOWLwcq-2276" value="" style="whiteSpace=wrap;html=1;aspect=fixed;fillColor=none;gradientColor=#ffffff;" vertex="1" parent="1">
          <mxGeometry x="559.75" y="585" width="153.5" height="153.5" as="geometry" />
        </mxCell>
        <mxCell id="xNP1j4Vja1RRKsOWLwcq-2277" value="Pilot zone/Security group" style="text;html=1;strokeColor=none;fillColor=none;align=center;verticalAlign=middle;whiteSpace=wrap;rounded=0;" vertex="1" parent="1">
          <mxGeometry x="126.5" y="730" width="140" height="20" as="geometry" />
        </mxCell>
        <mxCell id="xNP1j4Vja1RRKsOWLwcq-2278" value="Terminal server Security Group/User Group" style="text;html=1;strokeColor=none;fillColor=none;align=center;verticalAlign=middle;whiteSpace=wrap;rounded=0;" vertex="1" parent="1">
          <mxGeometry x="80" y="330" width="240" height="20" as="geometry" />
        </mxCell>
        <mxCell id="xNP1j4Vja1RRKsOWLwcq-2281" value="Rollout zone/Security Group" style="text;html=1;strokeColor=none;fillColor=none;align=center;verticalAlign=middle;whiteSpace=wrap;rounded=0;glass=0;dashed=1;" vertex="1" parent="1">
          <mxGeometry x="556.5" y="730" width="160" height="20" as="geometry" />
        </mxCell>
        <mxCell id="xNP1j4Vja1RRKsOWLwcq-2282" value="Intranet" style="text;html=1;strokeColor=none;fillColor=none;align=center;verticalAlign=middle;whiteSpace=wrap;rounded=0;glass=0;dashed=1;" vertex="1" parent="1">
          <mxGeometry x="460" y="160" width="40" height="20" as="geometry" />
        </mxCell>
        <mxCell id="xNP1j4Vja1RRKsOWLwcq-2284" value="Users" style="text;html=1;strokeColor=none;fillColor=none;align=center;verticalAlign=middle;whiteSpace=wrap;rounded=0;glass=0;dashed=1;" vertex="1" parent="1">
          <mxGeometry x="447" y="31.5" width="40" height="20" as="geometry" />
        </mxCell>
        <mxCell id="xNP1j4Vja1RRKsOWLwcq-2285" value="Load Balancer?" style="text;html=1;strokeColor=none;fillColor=none;align=center;verticalAlign=middle;whiteSpace=wrap;rounded=0;glass=0;dashed=1;" vertex="1" parent="1">
          <mxGeometry x="435" y="395" width="90" height="20" as="geometry" />
        </mxCell>
        <mxCell id="xNP1j4Vja1RRKsOWLwcq-2287" value="Router/Route Table" style="text;html=1;strokeColor=none;fillColor=none;align=center;verticalAlign=middle;whiteSpace=wrap;rounded=0;glass=0;dashed=1;" vertex="1" parent="1">
          <mxGeometry x="453.75" y="509" width="110" height="20" as="geometry" />
        </mxCell>
        <mxCell id="xNP1j4Vja1RRKsOWLwcq-2288" value="Servers" style="text;html=1;strokeColor=none;fillColor=none;align=center;verticalAlign=middle;whiteSpace=wrap;rounded=0;glass=0;dashed=1;" vertex="1" parent="1">
          <mxGeometry x="616.5" y="690" width="40" height="20" as="geometry" />
        </mxCell>
        <mxCell id="xNP1j4Vja1RRKsOWLwcq-2289" value="Servers" style="text;html=1;strokeColor=none;fillColor=none;align=center;verticalAlign=middle;whiteSpace=wrap;rounded=0;glass=0;dashed=1;" vertex="1" parent="1">
          <mxGeometry x="176.5" y="690" width="40" height="20" as="geometry" />
        </mxCell>
      </root>
    </mxGraphModel>
  </diagram>
</mxfile>
